<?xml version="1.0" encoding="utf-8" standalone="no"?>
<!DOCTYPE svg PUBLIC "-//W3C//DTD SVG 1.1//EN"
  "http://www.w3.org/Graphics/SVG/1.1/DTD/svg11.dtd">
<svg xmlns:xlink="http://www.w3.org/1999/xlink" width="494.203125pt" height="349.822063pt" viewBox="0 0 494.203125 349.822063" xmlns="http://www.w3.org/2000/svg" version="1.1">
 <metadata>
  <rdf:RDF xmlns:dc="http://purl.org/dc/elements/1.1/" xmlns:cc="http://creativecommons.org/ns#" xmlns:rdf="http://www.w3.org/1999/02/22-rdf-syntax-ns#">
   <cc:Work>
    <dc:type rdf:resource="http://purl.org/dc/dcmitype/StillImage"/>
    <dc:date>2026-03-23T19:37:12.531854</dc:date>
    <dc:format>image/svg+xml</dc:format>
    <dc:creator>
     <cc:Agent>
      <dc:title>Matplotlib v3.10.8, https://matplotlib.org/</dc:title>
     </cc:Agent>
    </dc:creator>
   </cc:Work>
  </rdf:RDF>
 </metadata>
 <defs>
  <style type="text/css">*{stroke-linejoin: round; stroke-linecap: butt}</style>
 </defs>
 <g id="figure_1">
  <g id="patch_1">
   <path d="M 0 349.822063 
L 494.203125 349.822063 
L 494.203125 0 
L 0 0 
z
" style="fill: #ffffff"/>
  </g>
  <g id="axes_1">
   <g id="patch_2">
    <path d="M 40.603125 312.9555 
L 487.003125 312.9555 
L 487.003125 35.7555 
L 40.603125 35.7555 
z
" style="fill: #ffffff"/>
   </g>
   <g id="patch_3">
    <path d="M 60.894034 272.883954 
L 166.106155 272.883954 
L 166.106155 177.000986 
L 60.894034 177.000986 
z
" clip-path="url(#p52df141e25)" style="fill: #2563eb; opacity: 0.8"/>
   </g>
   <g id="patch_4">
    <path d="M 361.500095 272.883954 
L 466.712216 272.883954 
L 466.712216 169.861905 
L 361.500095 169.861905 
z
" clip-path="url(#p52df141e25)" style="fill: #16a34a; opacity: 0.8"/>
   </g>
   <g id="matplotlib.axis_1">
    <g id="xtick_1">
     <g id="line2d_1">
      <defs>
       <path id="m7a5921633d" d="M 0 0 
L 0 3.5 
" style="stroke: #000000; stroke-width: 0.8"/>
      </defs>
      <g>
       <use xlink:href="#m7a5921633d" x="113.500095" y="312.9555" style="stroke: #000000; stroke-width: 0.8"/>
      </g>
     </g>
     <g id="text_1">
      <!-- Customers (8 cols, n=1000) -->
      <g transform="translate(50.305329 326.794094) scale(0.09 -0.09)">
       <defs>
        <path id="DejaVuSans-43" d="M 4122 4306 
L 4122 3641 
Q 3803 3938 3442 4084 
Q 3081 4231 2675 4231 
Q 1875 4231 1450 3742 
Q 1025 3253 1025 2328 
Q 1025 1406 1450 917 
Q 1875 428 2675 428 
Q 3081 428 3442 575 
Q 3803 722 4122 1019 
L 4122 359 
Q 3791 134 3420 21 
Q 3050 -91 2638 -91 
Q 1578 -91 968 557 
Q 359 1206 359 2328 
Q 359 3453 968 4101 
Q 1578 4750 2638 4750 
Q 3056 4750 3426 4639 
Q 3797 4528 4122 4306 
z
" transform="scale(0.015625)"/>
        <path id="DejaVuSans-75" d="M 544 1381 
L 544 3500 
L 1119 3500 
L 1119 1403 
Q 1119 906 1312 657 
Q 1506 409 1894 409 
Q 2359 409 2629 706 
Q 2900 1003 2900 1516 
L 2900 3500 
L 3475 3500 
L 3475 0 
L 2900 0 
L 2900 538 
Q 2691 219 2414 64 
Q 2138 -91 1772 -91 
Q 1169 -91 856 284 
Q 544 659 544 1381 
z
M 1991 3584 
L 1991 3584 
z
" transform="scale(0.015625)"/>
        <path id="DejaVuSans-73" d="M 2834 3397 
L 2834 2853 
Q 2591 2978 2328 3040 
Q 2066 3103 1784 3103 
Q 1356 3103 1142 2972 
Q 928 2841 928 2578 
Q 928 2378 1081 2264 
Q 1234 2150 1697 2047 
L 1894 2003 
Q 2506 1872 2764 1633 
Q 3022 1394 3022 966 
Q 3022 478 2636 193 
Q 2250 -91 1575 -91 
Q 1294 -91 989 -36 
Q 684 19 347 128 
L 347 722 
Q 666 556 975 473 
Q 1284 391 1588 391 
Q 1994 391 2212 530 
Q 2431 669 2431 922 
Q 2431 1156 2273 1281 
Q 2116 1406 1581 1522 
L 1381 1569 
Q 847 1681 609 1914 
Q 372 2147 372 2553 
Q 372 3047 722 3315 
Q 1072 3584 1716 3584 
Q 2034 3584 2315 3537 
Q 2597 3491 2834 3397 
z
" transform="scale(0.015625)"/>
        <path id="DejaVuSans-74" d="M 1172 4494 
L 1172 3500 
L 2356 3500 
L 2356 3053 
L 1172 3053 
L 1172 1153 
Q 1172 725 1289 603 
Q 1406 481 1766 481 
L 2356 481 
L 2356 0 
L 1766 0 
Q 1100 0 847 248 
Q 594 497 594 1153 
L 594 3053 
L 172 3053 
L 172 3500 
L 594 3500 
L 594 4494 
L 1172 4494 
z
" transform="scale(0.015625)"/>
        <path id="DejaVuSans-6f" d="M 1959 3097 
Q 1497 3097 1228 2736 
Q 959 2375 959 1747 
Q 959 1119 1226 758 
Q 1494 397 1959 397 
Q 2419 397 2687 759 
Q 2956 1122 2956 1747 
Q 2956 2369 2687 2733 
Q 2419 3097 1959 3097 
z
M 1959 3584 
Q 2709 3584 3137 3096 
Q 3566 2609 3566 1747 
Q 3566 888 3137 398 
Q 2709 -91 1959 -91 
Q 1206 -91 779 398 
Q 353 888 353 1747 
Q 353 2609 779 3096 
Q 1206 3584 1959 3584 
z
" transform="scale(0.015625)"/>
        <path id="DejaVuSans-6d" d="M 3328 2828 
Q 3544 3216 3844 3400 
Q 4144 3584 4550 3584 
Q 5097 3584 5394 3201 
Q 5691 2819 5691 2113 
L 5691 0 
L 5113 0 
L 5113 2094 
Q 5113 2597 4934 2840 
Q 4756 3084 4391 3084 
Q 3944 3084 3684 2787 
Q 3425 2491 3425 1978 
L 3425 0 
L 2847 0 
L 2847 2094 
Q 2847 2600 2669 2842 
Q 2491 3084 2119 3084 
Q 1678 3084 1418 2786 
Q 1159 2488 1159 1978 
L 1159 0 
L 581 0 
L 581 3500 
L 1159 3500 
L 1159 2956 
Q 1356 3278 1631 3431 
Q 1906 3584 2284 3584 
Q 2666 3584 2933 3390 
Q 3200 3197 3328 2828 
z
" transform="scale(0.015625)"/>
        <path id="DejaVuSans-65" d="M 3597 1894 
L 3597 1613 
L 953 1613 
Q 991 1019 1311 708 
Q 1631 397 2203 397 
Q 2534 397 2845 478 
Q 3156 559 3463 722 
L 3463 178 
Q 3153 47 2828 -22 
Q 2503 -91 2169 -91 
Q 1331 -91 842 396 
Q 353 884 353 1716 
Q 353 2575 817 3079 
Q 1281 3584 2069 3584 
Q 2775 3584 3186 3129 
Q 3597 2675 3597 1894 
z
M 3022 2063 
Q 3016 2534 2758 2815 
Q 2500 3097 2075 3097 
Q 1594 3097 1305 2825 
Q 1016 2553 972 2059 
L 3022 2063 
z
" transform="scale(0.015625)"/>
        <path id="DejaVuSans-72" d="M 2631 2963 
Q 2534 3019 2420 3045 
Q 2306 3072 2169 3072 
Q 1681 3072 1420 2755 
Q 1159 2438 1159 1844 
L 1159 0 
L 581 0 
L 581 3500 
L 1159 3500 
L 1159 2956 
Q 1341 3275 1631 3429 
Q 1922 3584 2338 3584 
Q 2397 3584 2469 3576 
Q 2541 3569 2628 3553 
L 2631 2963 
z
" transform="scale(0.015625)"/>
        <path id="DejaVuSans-20" transform="scale(0.015625)"/>
        <path id="DejaVuSans-28" d="M 1984 4856 
Q 1566 4138 1362 3434 
Q 1159 2731 1159 2009 
Q 1159 1288 1364 580 
Q 1569 -128 1984 -844 
L 1484 -844 
Q 1016 -109 783 600 
Q 550 1309 550 2009 
Q 550 2706 781 3412 
Q 1013 4119 1484 4856 
L 1984 4856 
z
" transform="scale(0.015625)"/>
        <path id="DejaVuSans-38" d="M 2034 2216 
Q 1584 2216 1326 1975 
Q 1069 1734 1069 1313 
Q 1069 891 1326 650 
Q 1584 409 2034 409 
Q 2484 409 2743 651 
Q 3003 894 3003 1313 
Q 3003 1734 2745 1975 
Q 2488 2216 2034 2216 
z
M 1403 2484 
Q 997 2584 770 2862 
Q 544 3141 544 3541 
Q 544 4100 942 4425 
Q 1341 4750 2034 4750 
Q 2731 4750 3128 4425 
Q 3525 4100 3525 3541 
Q 3525 3141 3298 2862 
Q 3072 2584 2669 2484 
Q 3125 2378 3379 2068 
Q 3634 1759 3634 1313 
Q 3634 634 3220 271 
Q 2806 -91 2034 -91 
Q 1263 -91 848 271 
Q 434 634 434 1313 
Q 434 1759 690 2068 
Q 947 2378 1403 2484 
z
M 1172 3481 
Q 1172 3119 1398 2916 
Q 1625 2713 2034 2713 
Q 2441 2713 2670 2916 
Q 2900 3119 2900 3481 
Q 2900 3844 2670 4047 
Q 2441 4250 2034 4250 
Q 1625 4250 1398 4047 
Q 1172 3844 1172 3481 
z
" transform="scale(0.015625)"/>
        <path id="DejaVuSans-63" d="M 3122 3366 
L 3122 2828 
Q 2878 2963 2633 3030 
Q 2388 3097 2138 3097 
Q 1578 3097 1268 2742 
Q 959 2388 959 1747 
Q 959 1106 1268 751 
Q 1578 397 2138 397 
Q 2388 397 2633 464 
Q 2878 531 3122 666 
L 3122 134 
Q 2881 22 2623 -34 
Q 2366 -91 2075 -91 
Q 1284 -91 818 406 
Q 353 903 353 1747 
Q 353 2603 823 3093 
Q 1294 3584 2113 3584 
Q 2378 3584 2631 3529 
Q 2884 3475 3122 3366 
z
" transform="scale(0.015625)"/>
        <path id="DejaVuSans-6c" d="M 603 4863 
L 1178 4863 
L 1178 0 
L 603 0 
L 603 4863 
z
" transform="scale(0.015625)"/>
        <path id="DejaVuSans-2c" d="M 750 794 
L 1409 794 
L 1409 256 
L 897 -744 
L 494 -744 
L 750 256 
L 750 794 
z
" transform="scale(0.015625)"/>
        <path id="DejaVuSans-6e" d="M 3513 2113 
L 3513 0 
L 2938 0 
L 2938 2094 
Q 2938 2591 2744 2837 
Q 2550 3084 2163 3084 
Q 1697 3084 1428 2787 
Q 1159 2491 1159 1978 
L 1159 0 
L 581 0 
L 581 3500 
L 1159 3500 
L 1159 2956 
Q 1366 3272 1645 3428 
Q 1925 3584 2291 3584 
Q 2894 3584 3203 3211 
Q 3513 2838 3513 2113 
z
" transform="scale(0.015625)"/>
        <path id="DejaVuSans-3d" d="M 678 2906 
L 4684 2906 
L 4684 2381 
L 678 2381 
L 678 2906 
z
M 678 1631 
L 4684 1631 
L 4684 1100 
L 678 1100 
L 678 1631 
z
" transform="scale(0.015625)"/>
        <path id="DejaVuSans-31" d="M 794 531 
L 1825 531 
L 1825 4091 
L 703 3866 
L 703 4441 
L 1819 4666 
L 2450 4666 
L 2450 531 
L 3481 531 
L 3481 0 
L 794 0 
L 794 531 
z
" transform="scale(0.015625)"/>
        <path id="DejaVuSans-30" d="M 2034 4250 
Q 1547 4250 1301 3770 
Q 1056 3291 1056 2328 
Q 1056 1369 1301 889 
Q 1547 409 2034 409 
Q 2525 409 2770 889 
Q 3016 1369 3016 2328 
Q 3016 3291 2770 3770 
Q 2525 4250 2034 4250 
z
M 2034 4750 
Q 2819 4750 3233 4129 
Q 3647 3509 3647 2328 
Q 3647 1150 3233 529 
Q 2819 -91 2034 -91 
Q 1250 -91 836 529 
Q 422 1150 422 2328 
Q 422 3509 836 4129 
Q 1250 4750 2034 4750 
z
" transform="scale(0.015625)"/>
        <path id="DejaVuSans-29" d="M 513 4856 
L 1013 4856 
Q 1481 4119 1714 3412 
Q 1947 2706 1947 2009 
Q 1947 1309 1714 600 
Q 1481 -109 1013 -844 
L 513 -844 
Q 928 -128 1133 580 
Q 1338 1288 1338 2009 
Q 1338 2731 1133 3434 
Q 928 4138 513 4856 
z
" transform="scale(0.015625)"/>
       </defs>
       <use xlink:href="#DejaVuSans-43"/>
       <use xlink:href="#DejaVuSans-75" transform="translate(69.824219 0)"/>
       <use xlink:href="#DejaVuSans-73" transform="translate(133.203125 0)"/>
       <use xlink:href="#DejaVuSans-74" transform="translate(185.302734 0)"/>
       <use xlink:href="#DejaVuSans-6f" transform="translate(224.511719 0)"/>
       <use xlink:href="#DejaVuSans-6d" transform="translate(285.693359 0)"/>
       <use xlink:href="#DejaVuSans-65" transform="translate(383.105469 0)"/>
       <use xlink:href="#DejaVuSans-72" transform="translate(444.628906 0)"/>
       <use xlink:href="#DejaVuSans-73" transform="translate(485.742188 0)"/>
       <use xlink:href="#DejaVuSans-20" transform="translate(537.841797 0)"/>
       <use xlink:href="#DejaVuSans-28" transform="translate(569.628906 0)"/>
       <use xlink:href="#DejaVuSans-38" transform="translate(608.642578 0)"/>
       <use xlink:href="#DejaVuSans-20" transform="translate(672.265625 0)"/>
       <use xlink:href="#DejaVuSans-63" transform="translate(704.052734 0)"/>
       <use xlink:href="#DejaVuSans-6f" transform="translate(759.033203 0)"/>
       <use xlink:href="#DejaVuSans-6c" transform="translate(820.214844 0)"/>
       <use xlink:href="#DejaVuSans-73" transform="translate(847.998047 0)"/>
       <use xlink:href="#DejaVuSans-2c" transform="translate(900.097656 0)"/>
       <use xlink:href="#DejaVuSans-20" transform="translate(931.884766 0)"/>
       <use xlink:href="#DejaVuSans-6e" transform="translate(963.671875 0)"/>
       <use xlink:href="#DejaVuSans-3d" transform="translate(1027.050781 0)"/>
       <use xlink:href="#DejaVuSans-31" transform="translate(1110.839844 0)"/>
       <use xlink:href="#DejaVuSans-30" transform="translate(1174.462891 0)"/>
       <use xlink:href="#DejaVuSans-30" transform="translate(1238.085938 0)"/>
       <use xlink:href="#DejaVuSans-30" transform="translate(1301.708984 0)"/>
       <use xlink:href="#DejaVuSans-29" transform="translate(1365.332031 0)"/>
      </g>
     </g>
    </g>
    <g id="xtick_2">
     <g id="line2d_2">
      <g>
       <use xlink:href="#m7a5921633d" x="414.106155" y="312.9555" style="stroke: #000000; stroke-width: 0.8"/>
      </g>
     </g>
     <g id="text_2">
      <!-- Orders (5 cols, n=1000) -->
      <g transform="translate(359.980296 326.794094) scale(0.09 -0.09)">
       <defs>
        <path id="DejaVuSans-4f" d="M 2522 4238 
Q 1834 4238 1429 3725 
Q 1025 3213 1025 2328 
Q 1025 1447 1429 934 
Q 1834 422 2522 422 
Q 3209 422 3611 934 
Q 4013 1447 4013 2328 
Q 4013 3213 3611 3725 
Q 3209 4238 2522 4238 
z
M 2522 4750 
Q 3503 4750 4090 4092 
Q 4678 3434 4678 2328 
Q 4678 1225 4090 567 
Q 3503 -91 2522 -91 
Q 1538 -91 948 565 
Q 359 1222 359 2328 
Q 359 3434 948 4092 
Q 1538 4750 2522 4750 
z
" transform="scale(0.015625)"/>
        <path id="DejaVuSans-64" d="M 2906 2969 
L 2906 4863 
L 3481 4863 
L 3481 0 
L 2906 0 
L 2906 525 
Q 2725 213 2448 61 
Q 2172 -91 1784 -91 
Q 1150 -91 751 415 
Q 353 922 353 1747 
Q 353 2572 751 3078 
Q 1150 3584 1784 3584 
Q 2172 3584 2448 3432 
Q 2725 3281 2906 2969 
z
M 947 1747 
Q 947 1113 1208 752 
Q 1469 391 1925 391 
Q 2381 391 2643 752 
Q 2906 1113 2906 1747 
Q 2906 2381 2643 2742 
Q 2381 3103 1925 3103 
Q 1469 3103 1208 2742 
Q 947 2381 947 1747 
z
" transform="scale(0.015625)"/>
        <path id="DejaVuSans-35" d="M 691 4666 
L 3169 4666 
L 3169 4134 
L 1269 4134 
L 1269 2991 
Q 1406 3038 1543 3061 
Q 1681 3084 1819 3084 
Q 2600 3084 3056 2656 
Q 3513 2228 3513 1497 
Q 3513 744 3044 326 
Q 2575 -91 1722 -91 
Q 1428 -91 1123 -41 
Q 819 9 494 109 
L 494 744 
Q 775 591 1075 516 
Q 1375 441 1709 441 
Q 2250 441 2565 725 
Q 2881 1009 2881 1497 
Q 2881 1984 2565 2268 
Q 2250 2553 1709 2553 
Q 1456 2553 1204 2497 
Q 953 2441 691 2322 
L 691 4666 
z
" transform="scale(0.015625)"/>
       </defs>
       <use xlink:href="#DejaVuSans-4f"/>
       <use xlink:href="#DejaVuSans-72" transform="translate(78.710938 0)"/>
       <use xlink:href="#DejaVuSans-64" transform="translate(118.074219 0)"/>
       <use xlink:href="#DejaVuSans-65" transform="translate(181.550781 0)"/>
       <use xlink:href="#DejaVuSans-72" transform="translate(243.074219 0)"/>
       <use xlink:href="#DejaVuSans-73" transform="translate(284.1875 0)"/>
       <use xlink:href="#DejaVuSans-20" transform="translate(336.287109 0)"/>
       <use xlink:href="#DejaVuSans-28" transform="translate(368.074219 0)"/>
       <use xlink:href="#DejaVuSans-35" transform="translate(407.087891 0)"/>
       <use xlink:href="#DejaVuSans-20" transform="translate(470.710938 0)"/>
       <use xlink:href="#DejaVuSans-63" transform="translate(502.498047 0)"/>
       <use xlink:href="#DejaVuSans-6f" transform="translate(557.478516 0)"/>
       <use xlink:href="#DejaVuSans-6c" transform="translate(618.660156 0)"/>
       <use xlink:href="#DejaVuSans-73" transform="translate(646.443359 0)"/>
       <use xlink:href="#DejaVuSans-2c" transform="translate(698.542969 0)"/>
       <use xlink:href="#DejaVuSans-20" transform="translate(730.330078 0)"/>
       <use xlink:href="#DejaVuSans-6e" transform="translate(762.117188 0)"/>
       <use xlink:href="#DejaVuSans-3d" transform="translate(825.496094 0)"/>
       <use xlink:href="#DejaVuSans-31" transform="translate(909.285156 0)"/>
       <use xlink:href="#DejaVuSans-30" transform="translate(972.908203 0)"/>
       <use xlink:href="#DejaVuSans-30" transform="translate(1036.53125 0)"/>
       <use xlink:href="#DejaVuSans-30" transform="translate(1100.154297 0)"/>
       <use xlink:href="#DejaVuSans-29" transform="translate(1163.777344 0)"/>
      </g>
     </g>
    </g>
    <g id="text_3">
     <!-- Schema (proxy — sample_size=1000 for all runs) -->
     <g transform="translate(140.321875 340.26425) scale(0.1 -0.1)">
      <defs>
       <path id="DejaVuSans-53" d="M 3425 4513 
L 3425 3897 
Q 3066 4069 2747 4153 
Q 2428 4238 2131 4238 
Q 1616 4238 1336 4038 
Q 1056 3838 1056 3469 
Q 1056 3159 1242 3001 
Q 1428 2844 1947 2747 
L 2328 2669 
Q 3034 2534 3370 2195 
Q 3706 1856 3706 1288 
Q 3706 609 3251 259 
Q 2797 -91 1919 -91 
Q 1588 -91 1214 -16 
Q 841 59 441 206 
L 441 856 
Q 825 641 1194 531 
Q 1563 422 1919 422 
Q 2459 422 2753 634 
Q 3047 847 3047 1241 
Q 3047 1584 2836 1778 
Q 2625 1972 2144 2069 
L 1759 2144 
Q 1053 2284 737 2584 
Q 422 2884 422 3419 
Q 422 4038 858 4394 
Q 1294 4750 2059 4750 
Q 2388 4750 2728 4690 
Q 3069 4631 3425 4513 
z
" transform="scale(0.015625)"/>
       <path id="DejaVuSans-68" d="M 3513 2113 
L 3513 0 
L 2938 0 
L 2938 2094 
Q 2938 2591 2744 2837 
Q 2550 3084 2163 3084 
Q 1697 3084 1428 2787 
Q 1159 2491 1159 1978 
L 1159 0 
L 581 0 
L 581 4863 
L 1159 4863 
L 1159 2956 
Q 1366 3272 1645 3428 
Q 1925 3584 2291 3584 
Q 2894 3584 3203 3211 
Q 3513 2838 3513 2113 
z
" transform="scale(0.015625)"/>
       <path id="DejaVuSans-61" d="M 2194 1759 
Q 1497 1759 1228 1600 
Q 959 1441 959 1056 
Q 959 750 1161 570 
Q 1363 391 1709 391 
Q 2188 391 2477 730 
Q 2766 1069 2766 1631 
L 2766 1759 
L 2194 1759 
z
M 3341 1997 
L 3341 0 
L 2766 0 
L 2766 531 
Q 2569 213 2275 61 
Q 1981 -91 1556 -91 
Q 1019 -91 701 211 
Q 384 513 384 1019 
Q 384 1609 779 1909 
Q 1175 2209 1959 2209 
L 2766 2209 
L 2766 2266 
Q 2766 2663 2505 2880 
Q 2244 3097 1772 3097 
Q 1472 3097 1187 3025 
Q 903 2953 641 2809 
L 641 3341 
Q 956 3463 1253 3523 
Q 1550 3584 1831 3584 
Q 2591 3584 2966 3190 
Q 3341 2797 3341 1997 
z
" transform="scale(0.015625)"/>
       <path id="DejaVuSans-70" d="M 1159 525 
L 1159 -1331 
L 581 -1331 
L 581 3500 
L 1159 3500 
L 1159 2969 
Q 1341 3281 1617 3432 
Q 1894 3584 2278 3584 
Q 2916 3584 3314 3078 
Q 3713 2572 3713 1747 
Q 3713 922 3314 415 
Q 2916 -91 2278 -91 
Q 1894 -91 1617 61 
Q 1341 213 1159 525 
z
M 3116 1747 
Q 3116 2381 2855 2742 
Q 2594 3103 2138 3103 
Q 1681 3103 1420 2742 
Q 1159 2381 1159 1747 
Q 1159 1113 1420 752 
Q 1681 391 2138 391 
Q 2594 391 2855 752 
Q 3116 1113 3116 1747 
z
" transform="scale(0.015625)"/>
       <path id="DejaVuSans-78" d="M 3513 3500 
L 2247 1797 
L 3578 0 
L 2900 0 
L 1881 1375 
L 863 0 
L 184 0 
L 1544 1831 
L 300 3500 
L 978 3500 
L 1906 2253 
L 2834 3500 
L 3513 3500 
z
" transform="scale(0.015625)"/>
       <path id="DejaVuSans-79" d="M 2059 -325 
Q 1816 -950 1584 -1140 
Q 1353 -1331 966 -1331 
L 506 -1331 
L 506 -850 
L 844 -850 
Q 1081 -850 1212 -737 
Q 1344 -625 1503 -206 
L 1606 56 
L 191 3500 
L 800 3500 
L 1894 763 
L 2988 3500 
L 3597 3500 
L 2059 -325 
z
" transform="scale(0.015625)"/>
       <path id="DejaVuSans-2014" d="M 313 1978 
L 6088 1978 
L 6088 1528 
L 313 1528 
L 313 1978 
z
" transform="scale(0.015625)"/>
       <path id="DejaVuSans-5f" d="M 3263 -1063 
L 3263 -1509 
L -63 -1509 
L -63 -1063 
L 3263 -1063 
z
" transform="scale(0.015625)"/>
       <path id="DejaVuSans-69" d="M 603 3500 
L 1178 3500 
L 1178 0 
L 603 0 
L 603 3500 
z
M 603 4863 
L 1178 4863 
L 1178 4134 
L 603 4134 
L 603 4863 
z
" transform="scale(0.015625)"/>
       <path id="DejaVuSans-7a" d="M 353 3500 
L 3084 3500 
L 3084 2975 
L 922 459 
L 3084 459 
L 3084 0 
L 275 0 
L 275 525 
L 2438 3041 
L 353 3041 
L 353 3500 
z
" transform="scale(0.015625)"/>
       <path id="DejaVuSans-66" d="M 2375 4863 
L 2375 4384 
L 1825 4384 
Q 1516 4384 1395 4259 
Q 1275 4134 1275 3809 
L 1275 3500 
L 2222 3500 
L 2222 3053 
L 1275 3053 
L 1275 0 
L 697 0 
L 697 3053 
L 147 3053 
L 147 3500 
L 697 3500 
L 697 3744 
Q 697 4328 969 4595 
Q 1241 4863 1831 4863 
L 2375 4863 
z
" transform="scale(0.015625)"/>
      </defs>
      <use xlink:href="#DejaVuSans-53"/>
      <use xlink:href="#DejaVuSans-63" transform="translate(63.476562 0)"/>
      <use xlink:href="#DejaVuSans-68" transform="translate(118.457031 0)"/>
      <use xlink:href="#DejaVuSans-65" transform="translate(181.835938 0)"/>
      <use xlink:href="#DejaVuSans-6d" transform="translate(243.359375 0)"/>
      <use xlink:href="#DejaVuSans-61" transform="translate(340.771484 0)"/>
      <use xlink:href="#DejaVuSans-20" transform="translate(402.050781 0)"/>
      <use xlink:href="#DejaVuSans-28" transform="translate(433.837891 0)"/>
      <use xlink:href="#DejaVuSans-70" transform="translate(472.851562 0)"/>
      <use xlink:href="#DejaVuSans-72" transform="translate(536.328125 0)"/>
      <use xlink:href="#DejaVuSans-6f" transform="translate(575.191406 0)"/>
      <use xlink:href="#DejaVuSans-78" transform="translate(633.248047 0)"/>
      <use xlink:href="#DejaVuSans-79" transform="translate(692.427734 0)"/>
      <use xlink:href="#DejaVuSans-20" transform="translate(751.607422 0)"/>
      <use xlink:href="#DejaVuSans-2014" transform="translate(783.394531 0)"/>
      <use xlink:href="#DejaVuSans-20" transform="translate(883.394531 0)"/>
      <use xlink:href="#DejaVuSans-73" transform="translate(915.181641 0)"/>
      <use xlink:href="#DejaVuSans-61" transform="translate(967.28125 0)"/>
      <use xlink:href="#DejaVuSans-6d" transform="translate(1028.560547 0)"/>
      <use xlink:href="#DejaVuSans-70" transform="translate(1125.972656 0)"/>
      <use xlink:href="#DejaVuSans-6c" transform="translate(1189.449219 0)"/>
      <use xlink:href="#DejaVuSans-65" transform="translate(1217.232422 0)"/>
      <use xlink:href="#DejaVuSans-5f" transform="translate(1278.755859 0)"/>
      <use xlink:href="#DejaVuSans-73" transform="translate(1328.755859 0)"/>
      <use xlink:href="#DejaVuSans-69" transform="translate(1380.855469 0)"/>
      <use xlink:href="#DejaVuSans-7a" transform="translate(1408.638672 0)"/>
      <use xlink:href="#DejaVuSans-65" transform="translate(1461.128906 0)"/>
      <use xlink:href="#DejaVuSans-3d" transform="translate(1522.652344 0)"/>
      <use xlink:href="#DejaVuSans-31" transform="translate(1606.441406 0)"/>
      <use xlink:href="#DejaVuSans-30" transform="translate(1670.064453 0)"/>
      <use xlink:href="#DejaVuSans-30" transform="translate(1733.6875 0)"/>
      <use xlink:href="#DejaVuSans-30" transform="translate(1797.310547 0)"/>
      <use xlink:href="#DejaVuSans-20" transform="translate(1860.933594 0)"/>
      <use xlink:href="#DejaVuSans-66" transform="translate(1892.720703 0)"/>
      <use xlink:href="#DejaVuSans-6f" transform="translate(1927.925781 0)"/>
      <use xlink:href="#DejaVuSans-72" transform="translate(1989.107422 0)"/>
      <use xlink:href="#DejaVuSans-20" transform="translate(2030.220703 0)"/>
      <use xlink:href="#DejaVuSans-61" transform="translate(2062.007812 0)"/>
      <use xlink:href="#DejaVuSans-6c" transform="translate(2123.287109 0)"/>
      <use xlink:href="#DejaVuSans-6c" transform="translate(2151.070312 0)"/>
      <use xlink:href="#DejaVuSans-20" transform="translate(2178.853516 0)"/>
      <use xlink:href="#DejaVuSans-72" transform="translate(2210.640625 0)"/>
      <use xlink:href="#DejaVuSans-75" transform="translate(2251.753906 0)"/>
      <use xlink:href="#DejaVuSans-6e" transform="translate(2315.132812 0)"/>
      <use xlink:href="#DejaVuSans-73" transform="translate(2378.511719 0)"/>
      <use xlink:href="#DejaVuSans-29" transform="translate(2430.611328 0)"/>
     </g>
    </g>
   </g>
   <g id="matplotlib.axis_2">
    <g id="ytick_1">
     <g id="line2d_3">
      <path d="M 40.603125 272.883954 
L 487.003125 272.883954 
" clip-path="url(#p52df141e25)" style="fill: none; stroke: #b0b0b0; stroke-opacity: 0.3; stroke-width: 0.8; stroke-linecap: square"/>
     </g>
     <g id="line2d_4">
      <defs>
       <path id="mcc870db52d" d="M 0 0 
L -3.5 0 
" style="stroke: #000000; stroke-width: 0.8"/>
      </defs>
      <g>
       <use xlink:href="#mcc870db52d" x="40.603125" y="272.883954" style="stroke: #000000; stroke-width: 0.8"/>
      </g>
     </g>
     <g id="text_4">
      <!-- 0 -->
      <g transform="translate(27.240625 276.683172) scale(0.1 -0.1)">
       <use xlink:href="#DejaVuSans-30"/>
      </g>
     </g>
    </g>
    <g id="ytick_2">
     <g id="line2d_5">
      <path d="M 40.603125 230.230976 
L 487.003125 230.230976 
" clip-path="url(#p52df141e25)" style="fill: none; stroke: #b0b0b0; stroke-opacity: 0.3; stroke-width: 0.8; stroke-linecap: square"/>
     </g>
     <g id="line2d_6">
      <g>
       <use xlink:href="#mcc870db52d" x="40.603125" y="230.230976" style="stroke: #000000; stroke-width: 0.8"/>
      </g>
     </g>
     <g id="text_5">
      <!-- 5 -->
      <g transform="translate(27.240625 234.030195) scale(0.1 -0.1)">
       <use xlink:href="#DejaVuSans-35"/>
      </g>
     </g>
    </g>
    <g id="ytick_3">
     <g id="line2d_7">
      <path d="M 40.603125 187.577999 
L 487.003125 187.577999 
" clip-path="url(#p52df141e25)" style="fill: none; stroke: #b0b0b0; stroke-opacity: 0.3; stroke-width: 0.8; stroke-linecap: square"/>
     </g>
     <g id="line2d_8">
      <g>
       <use xlink:href="#mcc870db52d" x="40.603125" y="187.577999" style="stroke: #000000; stroke-width: 0.8"/>
      </g>
     </g>
     <g id="text_6">
      <!-- 10 -->
      <g transform="translate(20.878125 191.377217) scale(0.1 -0.1)">
       <use xlink:href="#DejaVuSans-31"/>
       <use xlink:href="#DejaVuSans-30" transform="translate(63.623047 0)"/>
      </g>
     </g>
    </g>
    <g id="ytick_4">
     <g id="line2d_9">
      <path d="M 40.603125 144.925021 
L 487.003125 144.925021 
" clip-path="url(#p52df141e25)" style="fill: none; stroke: #b0b0b0; stroke-opacity: 0.3; stroke-width: 0.8; stroke-linecap: square"/>
     </g>
     <g id="line2d_10">
      <g>
       <use xlink:href="#mcc870db52d" x="40.603125" y="144.925021" style="stroke: #000000; stroke-width: 0.8"/>
      </g>
     </g>
     <g id="text_7">
      <!-- 15 -->
      <g transform="translate(20.878125 148.72424) scale(0.1 -0.1)">
       <use xlink:href="#DejaVuSans-31"/>
       <use xlink:href="#DejaVuSans-35" transform="translate(63.623047 0)"/>
      </g>
     </g>
    </g>
    <g id="ytick_5">
     <g id="line2d_11">
      <path d="M 40.603125 102.272044 
L 487.003125 102.272044 
" clip-path="url(#p52df141e25)" style="fill: none; stroke: #b0b0b0; stroke-opacity: 0.3; stroke-width: 0.8; stroke-linecap: square"/>
     </g>
     <g id="line2d_12">
      <g>
       <use xlink:href="#mcc870db52d" x="40.603125" y="102.272044" style="stroke: #000000; stroke-width: 0.8"/>
      </g>
     </g>
     <g id="text_8">
      <!-- 20 -->
      <g transform="translate(20.878125 106.071262) scale(0.1 -0.1)">
       <defs>
        <path id="DejaVuSans-32" d="M 1228 531 
L 3431 531 
L 3431 0 
L 469 0 
L 469 531 
Q 828 903 1448 1529 
Q 2069 2156 2228 2338 
Q 2531 2678 2651 2914 
Q 2772 3150 2772 3378 
Q 2772 3750 2511 3984 
Q 2250 4219 1831 4219 
Q 1534 4219 1204 4116 
Q 875 4013 500 3803 
L 500 4441 
Q 881 4594 1212 4672 
Q 1544 4750 1819 4750 
Q 2544 4750 2975 4387 
Q 3406 4025 3406 3419 
Q 3406 3131 3298 2873 
Q 3191 2616 2906 2266 
Q 2828 2175 2409 1742 
Q 1991 1309 1228 531 
z
" transform="scale(0.015625)"/>
       </defs>
       <use xlink:href="#DejaVuSans-32"/>
       <use xlink:href="#DejaVuSans-30" transform="translate(63.623047 0)"/>
      </g>
     </g>
    </g>
    <g id="ytick_6">
     <g id="line2d_13">
      <path d="M 40.603125 59.619066 
L 487.003125 59.619066 
" clip-path="url(#p52df141e25)" style="fill: none; stroke: #b0b0b0; stroke-opacity: 0.3; stroke-width: 0.8; stroke-linecap: square"/>
     </g>
     <g id="line2d_14">
      <g>
       <use xlink:href="#mcc870db52d" x="40.603125" y="59.619066" style="stroke: #000000; stroke-width: 0.8"/>
      </g>
     </g>
     <g id="text_9">
      <!-- 25 -->
      <g transform="translate(20.878125 63.418285) scale(0.1 -0.1)">
       <use xlink:href="#DejaVuSans-32"/>
       <use xlink:href="#DejaVuSans-35" transform="translate(63.623047 0)"/>
      </g>
     </g>
    </g>
    <g id="text_10">
     <!-- Mean Measured ε ± std dev -->
     <g transform="translate(14.798438 244.187531) rotate(-90) scale(0.1 -0.1)">
      <defs>
       <path id="DejaVuSans-4d" d="M 628 4666 
L 1569 4666 
L 2759 1491 
L 3956 4666 
L 4897 4666 
L 4897 0 
L 4281 0 
L 4281 4097 
L 3078 897 
L 2444 897 
L 1241 4097 
L 1241 0 
L 628 0 
L 628 4666 
z
" transform="scale(0.015625)"/>
       <path id="DejaVuSans-3b5" d="M 1234 1888 
Q 884 1963 697 2166 
Q 509 2366 509 2656 
Q 509 3097 866 3344 
Q 1219 3588 1831 3588 
Q 2069 3588 2334 3550 
Q 2600 3513 2906 3438 
L 2906 2916 
Q 2603 3006 2353 3047 
Q 2100 3088 1878 3088 
Q 1506 3088 1291 2944 
Q 1072 2800 1072 2600 
Q 1072 2381 1284 2241 
Q 1494 2103 1856 2103 
L 2341 2103 
L 2341 1628 
L 1878 1628 
Q 1450 1628 1225 1469 
Q 981 1294 981 1019 
Q 981 738 1244 563 
Q 1509 388 1981 388 
Q 2272 388 2538 444 
Q 2803 503 3025 619 
L 3025 84 
Q 2744 -3 2481 -47 
Q 2216 -91 1966 -91 
Q 1222 -91 819 194 
Q 416 478 416 1019 
Q 416 1356 631 1584 
Q 847 1813 1234 1888 
z
" transform="scale(0.015625)"/>
       <path id="DejaVuSans-b1" d="M 2944 4013 
L 2944 2803 
L 4684 2803 
L 4684 2272 
L 2944 2272 
L 2944 1063 
L 2419 1063 
L 2419 2272 
L 678 2272 
L 678 2803 
L 2419 2803 
L 2419 4013 
L 2944 4013 
z
M 678 531 
L 4684 531 
L 4684 0 
L 678 0 
L 678 531 
z
" transform="scale(0.015625)"/>
       <path id="DejaVuSans-76" d="M 191 3500 
L 800 3500 
L 1894 563 
L 2988 3500 
L 3597 3500 
L 2284 0 
L 1503 0 
L 191 3500 
z
" transform="scale(0.015625)"/>
      </defs>
      <use xlink:href="#DejaVuSans-4d"/>
      <use xlink:href="#DejaVuSans-65" transform="translate(86.279297 0)"/>
      <use xlink:href="#DejaVuSans-61" transform="translate(147.802734 0)"/>
      <use xlink:href="#DejaVuSans-6e" transform="translate(209.082031 0)"/>
      <use xlink:href="#DejaVuSans-20" transform="translate(272.460938 0)"/>
      <use xlink:href="#DejaVuSans-4d" transform="translate(304.248047 0)"/>
      <use xlink:href="#DejaVuSans-65" transform="translate(390.527344 0)"/>
      <use xlink:href="#DejaVuSans-61" transform="translate(452.050781 0)"/>
      <use xlink:href="#DejaVuSans-73" transform="translate(513.330078 0)"/>
      <use xlink:href="#DejaVuSans-75" transform="translate(565.429688 0)"/>
      <use xlink:href="#DejaVuSans-72" transform="translate(628.808594 0)"/>
      <use xlink:href="#DejaVuSans-65" transform="translate(667.671875 0)"/>
      <use xlink:href="#DejaVuSans-64" transform="translate(729.195312 0)"/>
      <use xlink:href="#DejaVuSans-20" transform="translate(792.671875 0)"/>
      <use xlink:href="#DejaVuSans-3b5" transform="translate(824.458984 0)"/>
      <use xlink:href="#DejaVuSans-20" transform="translate(878.511719 0)"/>
      <use xlink:href="#DejaVuSans-b1" transform="translate(910.298828 0)"/>
      <use xlink:href="#DejaVuSans-20" transform="translate(994.087891 0)"/>
      <use xlink:href="#DejaVuSans-73" transform="translate(1025.875 0)"/>
      <use xlink:href="#DejaVuSans-74" transform="translate(1077.974609 0)"/>
      <use xlink:href="#DejaVuSans-64" transform="translate(1117.183594 0)"/>
      <use xlink:href="#DejaVuSans-20" transform="translate(1180.660156 0)"/>
      <use xlink:href="#DejaVuSans-64" transform="translate(1212.447266 0)"/>
      <use xlink:href="#DejaVuSans-65" transform="translate(1275.923828 0)"/>
      <use xlink:href="#DejaVuSans-76" transform="translate(1337.447266 0)"/>
     </g>
    </g>
   </g>
   <g id="LineCollection_1">
    <path d="M 113.500095 300.3555 
L 113.500095 53.646473 
" clip-path="url(#p52df141e25)" style="fill: none; stroke: #000000; stroke-width: 1.5"/>
   </g>
   <g id="line2d_15">
    <defs>
     <path id="mf4d2e9812a" d="M 6 0 
L -6 -0 
" style="stroke: #000000"/>
    </defs>
    <g clip-path="url(#p52df141e25)">
     <use xlink:href="#mf4d2e9812a" x="113.500095" y="300.3555" style="fill: #1f77b4; stroke: #000000"/>
    </g>
   </g>
   <g id="line2d_16">
    <g clip-path="url(#p52df141e25)">
     <use xlink:href="#mf4d2e9812a" x="113.500095" y="53.646473" style="fill: #1f77b4; stroke: #000000"/>
    </g>
   </g>
   <g id="LineCollection_2">
    <path d="M 414.106155 291.36831 
L 414.106155 48.3555 
" clip-path="url(#p52df141e25)" style="fill: none; stroke: #000000; stroke-width: 1.5"/>
   </g>
   <g id="line2d_17">
    <g clip-path="url(#p52df141e25)">
     <use xlink:href="#mf4d2e9812a" x="414.106155" y="291.36831" style="fill: #1f77b4; stroke: #000000"/>
    </g>
   </g>
   <g id="line2d_18">
    <g clip-path="url(#p52df141e25)">
     <use xlink:href="#mf4d2e9812a" x="414.106155" y="48.3555" style="fill: #1f77b4; stroke: #000000"/>
    </g>
   </g>
   <g id="patch_5">
    <path d="M 40.603125 312.9555 
L 40.603125 35.7555 
" style="fill: none; stroke: #000000; stroke-width: 0.8; stroke-linejoin: miter; stroke-linecap: square"/>
   </g>
   <g id="patch_6">
    <path d="M 487.003125 312.9555 
L 487.003125 35.7555 
" style="fill: none; stroke: #000000; stroke-width: 0.8; stroke-linejoin: miter; stroke-linecap: square"/>
   </g>
   <g id="patch_7">
    <path d="M 40.603125 312.9555 
L 487.003125 312.9555 
" style="fill: none; stroke: #000000; stroke-width: 0.8; stroke-linejoin: miter; stroke-linecap: square"/>
   </g>
   <g id="patch_8">
    <path d="M 40.603125 35.7555 
L 487.003125 35.7555 
" style="fill: none; stroke: #000000; stroke-width: 0.8; stroke-linejoin: miter; stroke-linecap: square"/>
   </g>
   <g id="text_11">
    <!-- Epsilon vs. Schema Complexity -->
    <g transform="translate(169.951875 16.318125) scale(0.12 -0.12)">
     <defs>
      <path id="DejaVuSans-45" d="M 628 4666 
L 3578 4666 
L 3578 4134 
L 1259 4134 
L 1259 2753 
L 3481 2753 
L 3481 2222 
L 1259 2222 
L 1259 531 
L 3634 531 
L 3634 0 
L 628 0 
L 628 4666 
z
" transform="scale(0.015625)"/>
      <path id="DejaVuSans-2e" d="M 684 794 
L 1344 794 
L 1344 0 
L 684 0 
L 684 794 
z
" transform="scale(0.015625)"/>
     </defs>
     <use xlink:href="#DejaVuSans-45"/>
     <use xlink:href="#DejaVuSans-70" transform="translate(63.183594 0)"/>
     <use xlink:href="#DejaVuSans-73" transform="translate(126.660156 0)"/>
     <use xlink:href="#DejaVuSans-69" transform="translate(178.759766 0)"/>
     <use xlink:href="#DejaVuSans-6c" transform="translate(206.542969 0)"/>
     <use xlink:href="#DejaVuSans-6f" transform="translate(234.326172 0)"/>
     <use xlink:href="#DejaVuSans-6e" transform="translate(295.507812 0)"/>
     <use xlink:href="#DejaVuSans-20" transform="translate(358.886719 0)"/>
     <use xlink:href="#DejaVuSans-76" transform="translate(390.673828 0)"/>
     <use xlink:href="#DejaVuSans-73" transform="translate(449.853516 0)"/>
     <use xlink:href="#DejaVuSans-2e" transform="translate(501.953125 0)"/>
     <use xlink:href="#DejaVuSans-20" transform="translate(533.740234 0)"/>
     <use xlink:href="#DejaVuSans-53" transform="translate(565.527344 0)"/>
     <use xlink:href="#DejaVuSans-63" transform="translate(629.003906 0)"/>
     <use xlink:href="#DejaVuSans-68" transform="translate(683.984375 0)"/>
     <use xlink:href="#DejaVuSans-65" transform="translate(747.363281 0)"/>
     <use xlink:href="#DejaVuSans-6d" transform="translate(808.886719 0)"/>
     <use xlink:href="#DejaVuSans-61" transform="translate(906.298828 0)"/>
     <use xlink:href="#DejaVuSans-20" transform="translate(967.578125 0)"/>
     <use xlink:href="#DejaVuSans-43" transform="translate(999.365234 0)"/>
     <use xlink:href="#DejaVuSans-6f" transform="translate(1069.189453 0)"/>
     <use xlink:href="#DejaVuSans-6d" transform="translate(1130.371094 0)"/>
     <use xlink:href="#DejaVuSans-70" transform="translate(1227.783203 0)"/>
     <use xlink:href="#DejaVuSans-6c" transform="translate(1291.259766 0)"/>
     <use xlink:href="#DejaVuSans-65" transform="translate(1319.042969 0)"/>
     <use xlink:href="#DejaVuSans-78" transform="translate(1378.816406 0)"/>
     <use xlink:href="#DejaVuSans-69" transform="translate(1437.996094 0)"/>
     <use xlink:href="#DejaVuSans-74" transform="translate(1465.779297 0)"/>
     <use xlink:href="#DejaVuSans-79" transform="translate(1504.988281 0)"/>
    </g>
    <!-- (LIMITATION: sample_size not varied — see Limitations section) -->
    <g transform="translate(73.782188 29.7555) scale(0.12 -0.12)">
     <defs>
      <path id="DejaVuSans-4c" d="M 628 4666 
L 1259 4666 
L 1259 531 
L 3531 531 
L 3531 0 
L 628 0 
L 628 4666 
z
" transform="scale(0.015625)"/>
      <path id="DejaVuSans-49" d="M 628 4666 
L 1259 4666 
L 1259 0 
L 628 0 
L 628 4666 
z
" transform="scale(0.015625)"/>
      <path id="DejaVuSans-54" d="M -19 4666 
L 3928 4666 
L 3928 4134 
L 2272 4134 
L 2272 0 
L 1638 0 
L 1638 4134 
L -19 4134 
L -19 4666 
z
" transform="scale(0.015625)"/>
      <path id="DejaVuSans-41" d="M 2188 4044 
L 1331 1722 
L 3047 1722 
L 2188 4044 
z
M 1831 4666 
L 2547 4666 
L 4325 0 
L 3669 0 
L 3244 1197 
L 1141 1197 
L 716 0 
L 50 0 
L 1831 4666 
z
" transform="scale(0.015625)"/>
      <path id="DejaVuSans-4e" d="M 628 4666 
L 1478 4666 
L 3547 763 
L 3547 4666 
L 4159 4666 
L 4159 0 
L 3309 0 
L 1241 3903 
L 1241 0 
L 628 0 
L 628 4666 
z
" transform="scale(0.015625)"/>
      <path id="DejaVuSans-3a" d="M 750 794 
L 1409 794 
L 1409 0 
L 750 0 
L 750 794 
z
M 750 3309 
L 1409 3309 
L 1409 2516 
L 750 2516 
L 750 3309 
z
" transform="scale(0.015625)"/>
     </defs>
     <use xlink:href="#DejaVuSans-28"/>
     <use xlink:href="#DejaVuSans-4c" transform="translate(39.013672 0)"/>
     <use xlink:href="#DejaVuSans-49" transform="translate(94.726562 0)"/>
     <use xlink:href="#DejaVuSans-4d" transform="translate(124.21875 0)"/>
     <use xlink:href="#DejaVuSans-49" transform="translate(210.498047 0)"/>
     <use xlink:href="#DejaVuSans-54" transform="translate(239.990234 0)"/>
     <use xlink:href="#DejaVuSans-41" transform="translate(293.324219 0)"/>
     <use xlink:href="#DejaVuSans-54" transform="translate(353.982422 0)"/>
     <use xlink:href="#DejaVuSans-49" transform="translate(415.066406 0)"/>
     <use xlink:href="#DejaVuSans-4f" transform="translate(444.558594 0)"/>
     <use xlink:href="#DejaVuSans-4e" transform="translate(523.269531 0)"/>
     <use xlink:href="#DejaVuSans-3a" transform="translate(598.074219 0)"/>
     <use xlink:href="#DejaVuSans-20" transform="translate(631.765625 0)"/>
     <use xlink:href="#DejaVuSans-73" transform="translate(663.552734 0)"/>
     <use xlink:href="#DejaVuSans-61" transform="translate(715.652344 0)"/>
     <use xlink:href="#DejaVuSans-6d" transform="translate(776.931641 0)"/>
     <use xlink:href="#DejaVuSans-70" transform="translate(874.34375 0)"/>
     <use xlink:href="#DejaVuSans-6c" transform="translate(937.820312 0)"/>
     <use xlink:href="#DejaVuSans-65" transform="translate(965.603516 0)"/>
     <use xlink:href="#DejaVuSans-5f" transform="translate(1027.126953 0)"/>
     <use xlink:href="#DejaVuSans-73" transform="translate(1077.126953 0)"/>
     <use xlink:href="#DejaVuSans-69" transform="translate(1129.226562 0)"/>
     <use xlink:href="#DejaVuSans-7a" transform="translate(1157.009766 0)"/>
     <use xlink:href="#DejaVuSans-65" transform="translate(1209.5 0)"/>
     <use xlink:href="#DejaVuSans-20" transform="translate(1271.023438 0)"/>
     <use xlink:href="#DejaVuSans-6e" transform="translate(1302.810547 0)"/>
     <use xlink:href="#DejaVuSans-6f" transform="translate(1366.189453 0)"/>
     <use xlink:href="#DejaVuSans-74" transform="translate(1427.371094 0)"/>
     <use xlink:href="#DejaVuSans-20" transform="translate(1466.580078 0)"/>
     <use xlink:href="#DejaVuSans-76" transform="translate(1498.367188 0)"/>
     <use xlink:href="#DejaVuSans-61" transform="translate(1557.546875 0)"/>
     <use xlink:href="#DejaVuSans-72" transform="translate(1618.826172 0)"/>
     <use xlink:href="#DejaVuSans-69" transform="translate(1659.939453 0)"/>
     <use xlink:href="#DejaVuSans-65" transform="translate(1687.722656 0)"/>
     <use xlink:href="#DejaVuSans-64" transform="translate(1749.246094 0)"/>
     <use xlink:href="#DejaVuSans-20" transform="translate(1812.722656 0)"/>
     <use xlink:href="#DejaVuSans-2014" transform="translate(1844.509766 0)"/>
     <use xlink:href="#DejaVuSans-20" transform="translate(1944.509766 0)"/>
     <use xlink:href="#DejaVuSans-73" transform="translate(1976.296875 0)"/>
     <use xlink:href="#DejaVuSans-65" transform="translate(2028.396484 0)"/>
     <use xlink:href="#DejaVuSans-65" transform="translate(2089.919922 0)"/>
     <use xlink:href="#DejaVuSans-20" transform="translate(2151.443359 0)"/>
     <use xlink:href="#DejaVuSans-4c" transform="translate(2183.230469 0)"/>
     <use xlink:href="#DejaVuSans-69" transform="translate(2238.943359 0)"/>
     <use xlink:href="#DejaVuSans-6d" transform="translate(2266.726562 0)"/>
     <use xlink:href="#DejaVuSans-69" transform="translate(2364.138672 0)"/>
     <use xlink:href="#DejaVuSans-74" transform="translate(2391.921875 0)"/>
     <use xlink:href="#DejaVuSans-61" transform="translate(2431.130859 0)"/>
     <use xlink:href="#DejaVuSans-74" transform="translate(2492.410156 0)"/>
     <use xlink:href="#DejaVuSans-69" transform="translate(2531.619141 0)"/>
     <use xlink:href="#DejaVuSans-6f" transform="translate(2559.402344 0)"/>
     <use xlink:href="#DejaVuSans-6e" transform="translate(2620.583984 0)"/>
     <use xlink:href="#DejaVuSans-73" transform="translate(2683.962891 0)"/>
     <use xlink:href="#DejaVuSans-20" transform="translate(2736.0625 0)"/>
     <use xlink:href="#DejaVuSans-73" transform="translate(2767.849609 0)"/>
     <use xlink:href="#DejaVuSans-65" transform="translate(2819.949219 0)"/>
     <use xlink:href="#DejaVuSans-63" transform="translate(2881.472656 0)"/>
     <use xlink:href="#DejaVuSans-74" transform="translate(2936.453125 0)"/>
     <use xlink:href="#DejaVuSans-69" transform="translate(2975.662109 0)"/>
     <use xlink:href="#DejaVuSans-6f" transform="translate(3003.445312 0)"/>
     <use xlink:href="#DejaVuSans-6e" transform="translate(3064.626953 0)"/>
     <use xlink:href="#DejaVuSans-29" transform="translate(3128.005859 0)"/>
    </g>
   </g>
   <g id="legend_1">
    <g id="patch_9">
     <path d="M 186.208359 308.4555 
L 341.397891 308.4555 
Q 343.197891 308.4555 343.197891 306.6555 
L 343.197891 281.134875 
Q 343.197891 279.334875 341.397891 279.334875 
L 186.208359 279.334875 
Q 184.408359 279.334875 184.408359 281.134875 
L 184.408359 306.6555 
Q 184.408359 308.4555 186.208359 308.4555 
z
" style="fill: #ffffff; opacity: 0.8; stroke: #cccccc; stroke-linejoin: miter"/>
    </g>
    <g id="patch_10">
     <path d="M 188.008359 289.773469 
L 206.008359 289.773469 
L 206.008359 283.473469 
L 188.008359 283.473469 
z
" style="fill: #2563eb; opacity: 0.8"/>
    </g>
    <g id="text_12">
     <!-- Customers (8 cols, n=1000) -->
     <g transform="translate(213.208359 289.773469) scale(0.09 -0.09)">
      <use xlink:href="#DejaVuSans-43"/>
      <use xlink:href="#DejaVuSans-75" transform="translate(69.824219 0)"/>
      <use xlink:href="#DejaVuSans-73" transform="translate(133.203125 0)"/>
      <use xlink:href="#DejaVuSans-74" transform="translate(185.302734 0)"/>
      <use xlink:href="#DejaVuSans-6f" transform="translate(224.511719 0)"/>
      <use xlink:href="#DejaVuSans-6d" transform="translate(285.693359 0)"/>
      <use xlink:href="#DejaVuSans-65" transform="translate(383.105469 0)"/>
      <use xlink:href="#DejaVuSans-72" transform="translate(444.628906 0)"/>
      <use xlink:href="#DejaVuSans-73" transform="translate(485.742188 0)"/>
      <use xlink:href="#DejaVuSans-20" transform="translate(537.841797 0)"/>
      <use xlink:href="#DejaVuSans-28" transform="translate(569.628906 0)"/>
      <use xlink:href="#DejaVuSans-38" transform="translate(608.642578 0)"/>
      <use xlink:href="#DejaVuSans-20" transform="translate(672.265625 0)"/>
      <use xlink:href="#DejaVuSans-63" transform="translate(704.052734 0)"/>
      <use xlink:href="#DejaVuSans-6f" transform="translate(759.033203 0)"/>
      <use xlink:href="#DejaVuSans-6c" transform="translate(820.214844 0)"/>
      <use xlink:href="#DejaVuSans-73" transform="translate(847.998047 0)"/>
      <use xlink:href="#DejaVuSans-2c" transform="translate(900.097656 0)"/>
      <use xlink:href="#DejaVuSans-20" transform="translate(931.884766 0)"/>
      <use xlink:href="#DejaVuSans-6e" transform="translate(963.671875 0)"/>
      <use xlink:href="#DejaVuSans-3d" transform="translate(1027.050781 0)"/>
      <use xlink:href="#DejaVuSans-31" transform="translate(1110.839844 0)"/>
      <use xlink:href="#DejaVuSans-30" transform="translate(1174.462891 0)"/>
      <use xlink:href="#DejaVuSans-30" transform="translate(1238.085938 0)"/>
      <use xlink:href="#DejaVuSans-30" transform="translate(1301.708984 0)"/>
      <use xlink:href="#DejaVuSans-29" transform="translate(1365.332031 0)"/>
     </g>
    </g>
    <g id="patch_11">
     <path d="M 188.008359 302.983781 
L 206.008359 302.983781 
L 206.008359 296.683781 
L 188.008359 296.683781 
z
" style="fill: #16a34a; opacity: 0.8"/>
    </g>
    <g id="text_13">
     <!-- Orders (5 cols, n=1000) -->
     <g transform="translate(213.208359 302.983781) scale(0.09 -0.09)">
      <use xlink:href="#DejaVuSans-4f"/>
      <use xlink:href="#DejaVuSans-72" transform="translate(78.710938 0)"/>
      <use xlink:href="#DejaVuSans-64" transform="translate(118.074219 0)"/>
      <use xlink:href="#DejaVuSans-65" transform="translate(181.550781 0)"/>
      <use xlink:href="#DejaVuSans-72" transform="translate(243.074219 0)"/>
      <use xlink:href="#DejaVuSans-73" transform="translate(284.1875 0)"/>
      <use xlink:href="#DejaVuSans-20" transform="translate(336.287109 0)"/>
      <use xlink:href="#DejaVuSans-28" transform="translate(368.074219 0)"/>
      <use xlink:href="#DejaVuSans-35" transform="translate(407.087891 0)"/>
      <use xlink:href="#DejaVuSans-20" transform="translate(470.710938 0)"/>
      <use xlink:href="#DejaVuSans-63" transform="translate(502.498047 0)"/>
      <use xlink:href="#DejaVuSans-6f" transform="translate(557.478516 0)"/>
      <use xlink:href="#DejaVuSans-6c" transform="translate(618.660156 0)"/>
      <use xlink:href="#DejaVuSans-73" transform="translate(646.443359 0)"/>
      <use xlink:href="#DejaVuSans-2c" transform="translate(698.542969 0)"/>
      <use xlink:href="#DejaVuSans-20" transform="translate(730.330078 0)"/>
      <use xlink:href="#DejaVuSans-6e" transform="translate(762.117188 0)"/>
      <use xlink:href="#DejaVuSans-3d" transform="translate(825.496094 0)"/>
      <use xlink:href="#DejaVuSans-31" transform="translate(909.285156 0)"/>
      <use xlink:href="#DejaVuSans-30" transform="translate(972.908203 0)"/>
      <use xlink:href="#DejaVuSans-30" transform="translate(1036.53125 0)"/>
      <use xlink:href="#DejaVuSans-30" transform="translate(1100.154297 0)"/>
      <use xlink:href="#DejaVuSans-29" transform="translate(1163.777344 0)"/>
     </g>
    </g>
   </g>
  </g>
 </g>
 <defs>
  <clipPath id="p52df141e25">
   <rect x="40.603125" y="35.7555" width="446.4" height="277.2"/>
  </clipPath>
 </defs>
</svg>
